<svg width="128" height="128" viewBox="0 0 128 128" fill="none" xmlns="http://www.w3.org/2000/svg">
  <defs>
    <linearGradient id="g1" x1="16" y1="16" x2="112" y2="112" gradientUnits="userSpaceOnUse">
      <stop stop-color="#3B82F6"/>
      <stop offset="0.5" stop-color="#A855F7"/>
      <stop offset="1" stop-color="#10B981"/>
    </linearGradient>
    <filter id="s" x="-20%" y="-20%" width="140%" height="140%">
      <feDropShadow dx="0" dy="10" stdDeviation="10" flood-color="#0F172A" flood-opacity="0.20"/>
    </filter>
  </defs>
  <rect x="14" y="14" width="100" height="100" rx="28" fill="white" filter="url(#s)"/>
  <rect x="20" y="20" width="88" height="88" rx="24" fill="url(#g1)" opacity="0.16"/>
  <path d="M40 44C40 40.6863 42.6863 38 46 38H82C85.3137 38 88 40.6863 88 44V52C88 55.3137 85.3137 58 82 58H46C42.6863 58 40 55.3137 40 52V44Z" fill="url(#g1)"/>
  <path d="M40 76C40 72.6863 42.6863 70 46 70H66C69.3137 70 72 72.6863 72 76V84C72 87.3137 69.3137 90 66 90H46C42.6863 90 40 87.3137 40 84V76Z" fill="#0F172A" opacity="0.88"/>
  <path d="M78 70H88V90H78C74.6863 90 72 87.3137 72 84V76C72 72.6863 74.6863 70 78 70Z" fill="url(#g1)"/>
  <path d="M50 48H78" stroke="white" stroke-width="6" stroke-linecap="round"/>
  <path d="M50 80H62" stroke="white" stroke-width="6" stroke-linecap="round"/>
</svg>
